<svg width="2750" height="2000" viewBox="0 0 2750 2000" fill="none" xmlns="http://www.w3.org/2000/svg">
<path d="M539.45 1514.55C354.45 1345.7 685.35 1243.05 762.25 1107.35C946.55 510 1333.85 454.55 1539.7 507.6C1695.45 563.75 1778.4 716.7 1943.45 774.9C2339.55 906.1 2096.05 981.35 2230.5 1141.6C2440.25 1294.45 2628.55 1423.4 2400.35 1628.55C2294 1635.75 2185.85 1601.85 2065.35 1623.75C1425.65 1702.25 620 1650.75 539.45 1514.55Z" fill="#3C94F8" fill-opacity="0.2"/>
<path d="M1537.35 514C1536.9 508.6 1536.55 502.75 1539.5 498.2C1543.4 492.35 1551.3 491 1558.3 490.15C1565.45 489.3 1574.55 489.45 1577.6 495.95C1579.2 499.3 1578.5 503.2 1577.8 506.8C1572.8 532.1 1567.8 557.4 1562.8 582.7C1558.65 603.7 1545.05 601.1 1542.5 582.95C1539.35 560.45 1539.25 536.7 1537.35 514Z" fill="#3C94F8"/>
<path fill-rule="evenodd" clip-rule="evenodd" d="M1720.4 1667.1C1579.45 1667.1 1435.65 1650.5 1296.25 1634.4C1139.9 1616.3 978.15 1597.65 818 1601.8C773.7 1603.1 724 1610.65 675.95 1617.9C519.8 1641.45 358.4 1665.85 329.9 1493.2C293.05 1270.3 426.95 1209.15 648.7 1107.95C810.45 1034.1 1011.75 942.2 1232.75 754.4C1360.2 646.1 1493.95 581.65 1630.25 562.85C1751.1 546.2 1870.1 565.4 1983.95 620C2106.6 678.8 2217.6 778.05 2296.5 899.45C2373.2 1017.55 2413.7 1146.3 2410.5 1262C2408.55 1333.65 2390 1397.1 2355.45 1450.55C2318.15 1508.2 2263.1 1552.4 2191.85 1581.85C2059.45 1636.55 1913.75 1664.4 1746.5 1666.9C1737.83 1667.03 1729.13 1667.1 1720.4 1667.1ZM864.05 1599.5C1009.2 1599.5 1155 1616.3 1296.45 1632.65C1591.5 1666.75 1896.55 1702 2191.2 1580.25C2327.4 1523.95 2404.65 1410.9 2408.75 1261.95C2415.55 1016.4 2232.6 741.1 1983.2 621.55C1739.35 504.7 1473.25 552.35 1233.9 755.75C1012.7 943.7 811.25 1035.65 649.45 1109.5C537.8 1160.45 449.65 1200.7 393.35 1256.25C333.4 1315.4 314.35 1388.4 331.6 1492.95C344.25 1569.55 384.7 1613.55 455.25 1627.5C518.2 1639.95 598.25 1627.85 675.7 1616.15C723.8 1608.9 773.5 1601.4 817.95 1600.05C833.3 1599.65 848.7 1599.5 864.05 1599.5Z" fill="black"/>
<path d="M1543.9 611.45C1551.95 607.1 1563.45 613.75 1563.8 622.85C1564.1 632 1553.05 639.35 1544.75 635.55C1536.4 631.8 1534.75 618.6 1541.85 612.85" fill="#3C94F8"/>
<path d="M1619.35 520.7C1620.35 515.4 1621.65 509.65 1625.75 506.15C1631.05 501.55 1639 502.4 1646 503.5C1653.1 504.6 1661.8 507.2 1663 514.35C1663.6 517.95 1661.9 521.55 1660.2 524.8C1648.53 547.8 1636.85 570.783 1625.15 593.75C1615.45 612.85 1603.05 606.6 1605.55 588.45C1608.6 565.95 1615 543.1 1619.35 520.7Z" fill="#3C94F8"/>
<path d="M1599.1 616.3C1608.05 614.3 1617.35 623.8 1615.15 632.65C1612.95 641.55 1600.3 645.6 1593.35 639.7C1586.4 633.8 1588.35 620.65 1596.75 617.05" fill="#3C94F8"/>
<path d="M402.05 1631.85C293.3 1608.05 1508 1375.5 2378.95 1572.1C2483.3 1595.65 2474.35 1718.45 2095.7 1667.35C1717 1616.3 1577.2 1874.6 1155.1 1720.1C733.05 1565.6 595.85 1674.3 402.05 1631.85Z" fill="#99A1A3"/>
<path d="M860.95 1557.7C860.95 1557.7 900.05 1468.8 977.95 1469.9C1055.8 1470.95 1184.35 1574.9 1184.35 1574.9L860.95 1557.7Z" fill="black"/>
<path d="M2010.7 1586.7C2010.7 1586.7 2049.85 1497.8 2127.7 1498.85C2205.55 1499.9 2334.1 1603.9 2334.1 1603.9L2010.7 1586.7Z" fill="black"/>
<path d="M1038.35 755.6H267.8V275.55H1038.35V755.6Z" fill="#3C94F8"/>
<path fill-rule="evenodd" clip-rule="evenodd" d="M1002.7 822.2L919.7 730.4H242.6V236.4H1002.7V822.2ZM244.35 728.65H920.45L1000.95 817.7V238.15H244.35V728.65Z" fill="black"/>
<path d="M879.2 275.55L940.1 336.4Z" fill="black"/>
<path d="M879.2 336.4L940.1 275.55Z" fill="black"/>
<path d="M1442.25 1211.1C1440.25 1210.15 1438.05 1209.2 1435.85 1209.7C1432.25 1210.45 1430.55 1214.5 1429.9 1218.1C1428.25 1227.35 1429.85 1237.25 1426.35 1245.95C1425.15 1248.9 1421.8 1252.05 1419.2 1250.2C1418.3 1249.55 1417.8 1248.45 1417.45 1247.4C1413.6 1235 1423.2 1220.95 1418.15 1209.05C1410.8 1215.2 1406.5 1224.8 1406.8 1234.35C1406.95 1238.7 1407.9 1243.25 1406.25 1247.25C1404.65 1251.25 1398.7 1253.75 1395.95 1250.35C1394.95 1249.1 1394.7 1247.45 1394.55 1245.85C1393.1 1229.85 1399.95 1214.45 1402.7 1198.65C1403.2 1196.05 1402.75 1192.35 1400.1 1192.15C1393.8 1193.6 1389.4 1199.5 1387.35 1205.6C1385.25 1211.75 1385 1218.3 1383.6 1224.65C1382.85 1228.15 1380.35 1232.45 1376.85 1231.45C1373.9 1230.65 1373.4 1226.7 1373.55 1223.6C1374.5 1206.8 1378.6 1190.15 1385.5 1174.8C1374.9 1179.35 1367.65 1190.75 1368 1202.25C1368.15 1207 1368.65 1213.2 1364.2 1214.95C1358.8 1217.05 1355.05 1209.3 1354.85 1203.5C1354.35 1187.4 1358.55 1171.15 1366.9 1157.4C1370.05 1152.2 1373.95 1147.2 1379.35 1144.45C1387.1 1140.55 1396.4 1142.05 1404.6 1143.4C1414.5 1145.1 1424.4 1148.3 1434.15 1150.85C1450.35 1154.9 1466.4 1159.55 1482.35 1164.3C1484.85 1165.05 1487.4 1165.35 1489.9 1166.05C1490.9 1166.35 1492.15 1167.15 1493.15 1167.3C1494.55 1167.55 1495.8 1166.85 1497.25 1167.35C1495.35 1166.65 1494.2 1179.95 1494.1 1181.6C1493.65 1188 1492.35 1194.55 1491.45 1200.95C1490.8 1206 1490.1 1211.1 1489.7 1216.2C1489.7 1222.2 1489.9 1227.95 1488.9 1233.85C1485.6 1232.35 1482.4 1230.2 1479.05 1228.55C1475 1226.5 1471 1224.3 1466.85 1222.4C1458.65 1218.63 1450.45 1214.87 1442.25 1211.1Z" fill="#FFCF9F"/>
<path fill-rule="evenodd" clip-rule="evenodd" d="M1394.2 1254.35C1392.5 1254.35 1391.05 1253.65 1390.05 1252.4C1388.95 1251 1388.65 1249.2 1388.45 1247.45C1387.5 1236.55 1390.3 1225.8 1393.05 1215.45C1394.35 1210.35 1395.75 1205.15 1396.65 1200C1396.95 1198.4 1396.85 1196.25 1396 1195.15C1395.7 1194.8 1395.4 1194.6 1394.95 1194.55C1389.7 1195.8 1385.25 1200.6 1382.95 1207.4C1381.7 1211.15 1381.1 1215.15 1380.5 1219C1380.15 1221.4 1379.75 1223.9 1379.25 1226.35C1378.7 1228.7 1377.3 1231.95 1375 1233.3C1373.85 1234 1372.65 1234.15 1371.4 1233.8C1367.6 1232.75 1367.3 1227.85 1367.45 1225.05C1368.4 1208.8 1372.1 1193.05 1378.5 1178.15C1369.35 1183.1 1363.35 1193.3 1363.65 1203.75L1363.7 1204.6C1363.85 1209.4 1364.05 1215.4 1359.3 1217.25C1357.55 1217.95 1355.75 1217.75 1354.1 1216.7C1350.8 1214.5 1348.9 1209.2 1348.8 1205.05C1348.25 1188.85 1352.55 1172.3 1360.95 1158.45C1363.5 1154.25 1367.6 1148.3 1373.75 1145.2C1381.9 1141.05 1391.65 1142.75 1399.5 1144.05C1406.65 1145.3 1413.85 1147.3 1420.85 1149.25C1423.65 1150.05 1426.4 1150.8 1429.15 1151.55C1445.8 1155.7 1462.1 1160.45 1477.4 1165C1478.6 1165.35 1479.85 1165.6 1481.1 1165.85C1482.35 1166.1 1483.65 1166.35 1484.9 1166.75C1485.4 1166.9 1485.95 1167.1 1486.45 1167.35C1487 1167.6 1487.6 1167.9 1488.1 1167.95C1488.55 1168.05 1489.05 1168 1489.55 1167.9C1490.35 1167.8 1491.3 1167.65 1492.35 1168.05L1491.75 1169.7C1491.9 1169.75 1492.1 1169.7 1492.15 1169.65C1491.15 1170.45 1490.1 1178.05 1489.75 1183.15C1489.45 1187.5 1488.75 1191.9 1488.1 1196.15C1487.75 1198.3 1487.4 1200.45 1487.1 1202.55C1486.45 1207.65 1485.75 1212.75 1485.35 1217.75V1220.35C1485.4 1225.5 1485.4 1230.4 1484.55 1235.5L1484.35 1236.65L1483.35 1236.15C1481.45 1235.3 1479.6 1234.25 1477.85 1233.2C1476.4 1232.4 1474.9 1231.55 1473.45 1230.85C1472.02 1230.12 1470.58 1229.38 1469.15 1228.65C1466.6 1227.3 1463.95 1225.95 1461.25 1224.7L1436.7 1213.4C1434.55 1212.4 1432.65 1211.65 1430.8 1212.05C1427.15 1212.8 1425.9 1217.7 1425.55 1219.8C1424.95 1223.3 1424.75 1227 1424.65 1230.6C1424.4 1236.35 1424.15 1242.3 1421.95 1247.8C1421.1 1249.8 1419.2 1252.25 1416.9 1252.95C1415.65 1253.3 1414.5 1253.15 1413.5 1252.45C1412.3 1251.6 1411.75 1250.25 1411.4 1249.15C1409.5 1243 1410.8 1236.5 1412.05 1230.2C1413.3 1223.75 1414.5 1217.65 1412.55 1212C1406 1218 1402.15 1227 1402.45 1235.85C1402.5 1236.9 1402.55 1237.95 1402.65 1239C1402.9 1242.4 1403.2 1245.85 1401.85 1249.1C1400.8 1251.7 1398.05 1253.85 1395.15 1254.25C1394.82 1254.32 1394.5 1254.35 1394.2 1254.35ZM1394.85 1192.8H1394.95C1395.95 1192.85 1396.75 1193.3 1397.35 1194.1C1398.6 1195.7 1398.7 1198.35 1398.35 1200.3C1397.45 1205.5 1396.05 1210.8 1394.7 1215.85C1392.05 1226.1 1389.25 1236.7 1390.2 1247.3C1390.35 1248.75 1390.55 1250.25 1391.4 1251.35C1392.45 1252.6 1393.9 1252.7 1394.9 1252.55C1397.15 1252.2 1399.4 1250.5 1400.25 1248.4C1401.4 1245.6 1401.15 1242.45 1400.9 1239.15C1400.8 1238.05 1400.75 1237 1400.7 1235.9C1400.4 1226.15 1404.85 1216.15 1412.35 1209.85L1413.25 1209.1L1413.7 1210.2C1416.45 1216.65 1415.1 1223.7 1413.75 1230.5C1412.55 1236.6 1411.3 1242.9 1413.1 1248.65C1413.35 1249.45 1413.75 1250.5 1414.5 1251C1415.05 1251.4 1415.7 1251.5 1416.4 1251.3C1417.85 1250.85 1419.55 1249.1 1420.3 1247.15C1422.45 1241.95 1422.65 1236.4 1422.9 1230.5C1423.05 1226.85 1423.2 1223.1 1423.85 1219.5C1424.75 1214.35 1427.15 1211.05 1430.45 1210.35C1433 1209.8 1435.55 1210.95 1437.4 1211.8L1462 1223.1C1464.7 1224.35 1467.4 1225.75 1469.95 1227.1C1471.38 1227.83 1472.82 1228.55 1474.25 1229.25C1475.75 1230.05 1477.25 1230.9 1478.7 1231.7C1480.1 1232.5 1481.55 1233.35 1483 1234.1C1483.65 1229.5 1483.65 1225.05 1483.6 1220.35V1217.7C1484 1212.55 1484.7 1207.4 1485.4 1202.45C1485.7 1200.2 1486 1198.05 1486.35 1195.9C1487.05 1191.65 1487.75 1187.3 1488 1183.05C1488.15 1181.15 1488.75 1173 1490.2 1169.6C1490.07 1169.6 1489.93 1169.62 1489.8 1169.65C1489.2 1169.7 1488.5 1169.8 1487.8 1169.7C1487.1 1169.6 1486.4 1169.25 1485.7 1168.95C1485.25 1168.75 1484.8 1168.5 1484.4 1168.4C1483.2 1168.05 1481.95 1167.8 1480.75 1167.55C1479.5 1167.3 1478.2 1167 1476.9 1166.65C1461.65 1162.15 1445.35 1157.35 1428.75 1153.2C1425.95 1152.5 1423.15 1151.7 1420.4 1150.95C1413.45 1149 1406.3 1147 1399.2 1145.8C1391.65 1144.5 1382.2 1142.9 1374.5 1146.75C1368.75 1149.65 1364.85 1155.35 1362.45 1159.35C1354.2 1172.9 1350 1189.15 1350.5 1205C1350.65 1208.6 1352.3 1213.4 1355.05 1215.25C1356.25 1216 1357.4 1216.15 1358.7 1215.65C1362.25 1214.25 1362.1 1209.15 1361.95 1204.65L1361.9 1203.8C1361.55 1191.85 1368.95 1180.25 1379.9 1175.5L1381.95 1174.65L1381.05 1176.65C1374.15 1192.05 1370.15 1208.35 1369.2 1225.15C1369.1 1227 1369.15 1231.35 1371.9 1232.15C1372.65 1232.35 1373.4 1232.25 1374.1 1231.8C1375.8 1230.8 1377.05 1228.15 1377.55 1225.95C1378.05 1223.6 1378.4 1221.15 1378.8 1218.75C1379.35 1214.8 1380 1210.75 1381.3 1206.85C1383.8 1199.4 1388.8 1194.15 1394.7 1192.8H1394.85Z" fill="black"/>
<path d="M1620.5 1184.3C1626.6 1219.1 1631.9 1254.1 1636.35 1289.2C1635.2 1280.3 1580.15 1270.05 1572.85 1268.05C1563.7 1265.5 1480.4 1243.25 1480.15 1245.1C1483.75 1219.55 1491.95 1193 1492.35 1167.25C1515.15 1166 1544.1 1172.6 1567.55 1174.7C1573.4 1175.2 1619.25 1176.35 1620.5 1184.3Z" fill="#80C0FE"/>
<path fill-rule="evenodd" clip-rule="evenodd" d="M1385.55 1192C1384.5 1192 1383.55 1191.9 1382.55 1191.5C1380.6 1190.75 1379.25 1189.1 1378.65 1186.85C1377.9 1183.9 1378.65 1180.55 1380.5 1178.25C1383.8 1174.3 1389.25 1172.85 1393.3 1171.8L1454.45 1155.9L1454.8 1156.15C1462 1161.25 1470.75 1166.35 1480.7 1171.2C1481.17 1171.43 1481.57 1171.68 1481.9 1171.95L1484 1171.65L1483.6 1172.95C1483.43 1173.42 1483.27 1173.85 1483.1 1174.25C1483.1 1174.45 1483.07 1174.63 1483 1174.8C1482.93 1174.97 1482.83 1175.1 1482.7 1175.2C1477.7 1186.4 1464.4 1191.05 1454.05 1191.6C1447.15 1192 1440.2 1191.1 1433.5 1190.25C1428.4 1189.65 1423.15 1188.95 1418 1188.85C1409.9 1188.7 1401.65 1189.9 1393.7 1191.05C1392 1191.28 1390.3 1191.52 1388.6 1191.75C1387.5 1191.9 1386.5 1192 1385.55 1192ZM1454.1 1157.8L1393.7 1173.5C1388.8 1174.75 1384.55 1176.1 1381.85 1179.35C1380.35 1181.2 1379.75 1184.05 1380.35 1186.4C1380.8 1188.1 1381.8 1189.35 1383.2 1189.9C1384.7 1190.45 1386.4 1190.3 1388.35 1190.05C1390.05 1189.82 1391.75 1189.57 1393.45 1189.3C1401.5 1188.15 1409.8 1186.95 1418.05 1187.1C1423.3 1187.25 1428.6 1187.9 1433.7 1188.55C1440.35 1189.4 1447.2 1190.25 1453.95 1189.9C1464.3 1189.3 1476.05 1184.55 1480.8 1175.2C1480 1174.7 1479.1 1173.65 1479.3 1172.85C1479.33 1172.75 1479.4 1172.65 1479.5 1172.55C1469.75 1167.75 1461.25 1162.8 1454.1 1157.8Z" fill="black"/>
<path d="M1133.4 1668.1C1136.17 1669.27 1138.93 1670.45 1141.7 1671.65C1166.8 1644.4 1190.75 1615.35 1214.5 1586.8C1215.7 1585.3 1217.05 1583.6 1216.95 1581.65C1216.8 1579.75 1215.35 1578.2 1214 1576.85C1197.53 1560.65 1181.08 1544.45 1164.65 1528.25C1140.65 1553.7 1105.5 1568.25 1070.5 1567.25C1051.2 1566.7 1031.45 1561.7 1012.9 1567.05C991.4 1573.25 975.05 1594.25 974.35 1616.6C1026.1 1636.85 1082.45 1647 1133.4 1668.1Z" fill="#E8E9EF"/>
<path fill-rule="evenodd" clip-rule="evenodd" d="M1141.9 1668.4L1141.35 1668.15C1138.62 1666.95 1135.85 1665.77 1133.05 1664.6C1106.45 1653.6 1077.85 1645.4 1050.2 1637.5C1024.9 1630.25 998.75 1622.75 974 1613.1L973.45 1612.9V1612.25C974.2 1589.4 990.7 1568.25 1012.65 1561.9C1025.8 1558.1 1039.7 1559.45 1053.15 1560.75C1058.85 1561.3 1064.8 1561.9 1070.55 1562.05C1105.3 1563.05 1140.2 1548.6 1164 1523.35L1164.6 1522.7L1214.6 1571.95C1216.15 1573.45 1217.7 1575.15 1217.8 1577.3C1217.9 1579.55 1216.55 1581.35 1215.15 1583.05L1211.1 1587.95C1188.95 1614.65 1166 1642.2 1142.35 1667.95L1141.9 1668.4ZM1133.7 1663C1136.3 1664.07 1138.88 1665.17 1141.45 1666.3C1164.95 1640.75 1187.7 1613.35 1209.7 1586.85L1213.8 1581.95C1215 1580.45 1216.1 1579 1216.05 1577.4C1215.95 1575.85 1214.7 1574.5 1213.35 1573.15L1164.65 1525.15C1140.5 1550.35 1105.35 1564.8 1070.45 1563.8C1064.65 1563.65 1058.7 1563.05 1052.95 1562.5C1039.65 1561.2 1025.95 1559.85 1013.1 1563.55C992.05 1569.65 976.2 1589.8 975.2 1611.7C999.7 1621.25 1025.6 1628.65 1050.65 1635.8C1078.35 1643.75 1107 1651.95 1133.7 1663Z" fill="black"/>
<path d="M1590.9 1626.55C1591.9 1640.7 1589.3 1654.9 1588.55 1669.1C1588.3 1673.6 1588.25 1678.15 1589.3 1682.5C1591.2 1690.35 1596.55 1696.9 1602.4 1702.45C1609.9 1709.55 1618.45 1715.55 1627.7 1720.1C1636.65 1707.8 1686.75 1576.65 1691.25 1578.45C1662.5 1567 1633 1552.85 1603.15 1544.65C1592 1541.6 1592.4 1545.5 1586.25 1555.5C1582.45 1561.65 1577.7 1567.75 1574.65 1574.35C1569.55 1585.45 1572 1586.25 1579.1 1594.95C1585.9 1603.35 1589.65 1613.5 1590.7 1624.2C1590.8 1625 1590.87 1625.78 1590.9 1626.55Z" fill="#E8E9EF"/>
<path fill-rule="evenodd" clip-rule="evenodd" d="M1633.5 1721.2L1632.85 1720.9C1623.45 1716.25 1614.9 1710.25 1607.3 1703.05C1599.85 1696 1595.65 1689.5 1593.95 1682.7C1592.85 1678.2 1592.95 1673.5 1593.2 1669.05C1593.45 1664.25 1593.95 1659.4 1594.4 1654.7C1595.3 1645.5 1596.2 1635.95 1595.55 1626.65C1595.52 1625.85 1595.45 1625.07 1595.35 1624.3C1594.25 1613.3 1590.3 1603.35 1583.95 1595.5C1583.15 1594.57 1582.42 1593.7 1581.75 1592.9C1576.4 1586.5 1574.6 1584.35 1579.35 1574C1581.45 1569.55 1584.3 1565.25 1587.05 1561.15C1588.4 1559.15 1589.8 1557.05 1591 1555.05C1592.05 1553.35 1592.9 1551.9 1593.65 1550.55C1597.4 1543.85 1598.95 1541.1 1608.9 1543.8C1630.4 1549.75 1651.9 1558.8 1672.7 1567.55C1680.7 1570.95 1689 1574.45 1697.05 1577.65L1696.45 1579.25C1696.65 1579.35 1696.8 1579.3 1696.85 1579.25C1693.85 1580.95 1677.4 1620.4 1664.25 1652.1C1650.8 1684.35 1638.1 1714.85 1633.9 1720.6L1633.5 1721.2ZM1602.8 1544.5C1599.1 1544.5 1597.8 1546.7 1595.2 1551.4C1594.45 1552.75 1593.55 1554.25 1592.55 1555.95C1591.25 1558 1589.9 1560.1 1588.55 1562.1C1585.8 1566.2 1583 1570.4 1581 1574.75C1576.7 1584.1 1577.8 1585.4 1583.15 1591.8C1583.82 1592.6 1584.55 1593.48 1585.35 1594.45C1591.9 1602.55 1596 1612.8 1597.15 1624.15C1597.22 1624.92 1597.28 1625.7 1597.35 1626.5C1598 1636 1597.05 1645.6 1596.15 1654.9C1595.7 1659.55 1595.2 1664.4 1594.95 1669.15C1594.7 1673.45 1594.65 1678 1595.7 1682.3C1597.25 1688.75 1601.35 1694.95 1608.55 1701.8C1615.8 1708.7 1624 1714.5 1632.95 1719C1637.45 1712 1650.25 1681.25 1662.65 1651.45C1683.75 1600.8 1691.55 1583.05 1695.15 1578.75C1687.5 1575.65 1679.65 1572.35 1672.05 1569.2C1651.3 1560.45 1629.85 1551.4 1608.5 1545.5C1606.05 1544.85 1604.2 1544.5 1602.8 1544.5Z" fill="black"/>
<path fill-rule="evenodd" clip-rule="evenodd" d="M1635.5 1282.35C1634.6 1275.65 1595.35 1267 1580.55 1263.7C1576.7 1262.9 1573.95 1262.25 1572.65 1261.9C1558.6 1258.05 1484.35 1238.3 1480.45 1238.9C1480.6 1238.9 1480.95 1238.65 1481 1238.25L1479.25 1238L1479.3 1237.65C1480.65 1228.45 1482.55 1219.05 1484.45 1209.9C1487.75 1193.55 1491.2 1176.6 1491.45 1160.25L1491.5 1159.45L1492.3 1159.4C1507.25 1158.6 1524.75 1161.1 1541.7 1163.55C1550.85 1164.9 1559.5 1166.15 1567.6 1166.85C1568.45 1166.95 1570.05 1167.05 1572.2 1167.15C1595.9 1168.4 1620.3 1170.6 1621.35 1177.2C1627.45 1211.85 1632.8 1247.2 1637.2 1282.1C1637.2 1282.13 1637.2 1282.15 1637.2 1282.15L1635.5 1282.35ZM1481.15 1237.3C1493.1 1238.5 1572.3 1260 1573.15 1260.2C1574.4 1260.55 1577.3 1261.2 1580.95 1262C1605.25 1267.35 1628.05 1273.05 1635.05 1278.9C1630.75 1245.1 1625.55 1211 1619.65 1177.45C1619 1173.4 1603.05 1170.5 1572.15 1168.85C1569.95 1168.75 1568.3 1168.65 1567.5 1168.6C1559.3 1167.85 1550.65 1166.6 1541.45 1165.25C1524.95 1162.9 1507.85 1160.4 1493.2 1161.1C1492.85 1177.35 1489.45 1194.05 1486.15 1210.2C1484.35 1219.15 1482.45 1228.35 1481.15 1237.3Z" fill="black"/>
<path d="M1624.45 1054.2C1618.5 1158.65 1621.25 1263.6 1632.7 1367.6C1693.17 1396 1753.65 1424.4 1814.15 1452.8C1858.65 1473.75 1904.95 1495.05 1954.15 1495.65C1965.45 1366.9 1961.35 1236.8 1942.05 1109C1935 1062.3 1923.25 1011.45 1885.35 983.3C1857.85 962.8 1821.45 958.5 1787.2 960.4C1762.1 961.8 1737.35 967 1712.25 967.75C1698.25 968.15 1681.7 964.25 1668 967.8C1631.15 977.3 1626.25 1022.1 1624.45 1054.2Z" fill="#80C0FE"/>
<path d="M1750.9 1023.2C1765.6 1012 1782.6 1004.3 1798.9 995.55C1827.5 980.2 1854.25 961.35 1878.3 939.55C1888.35 930.4 1898.2 920.5 1903.75 908.1C1909.35 895.75 1909.95 880.35 1902.15 869.2C1896.95 861.8 1888.65 857.05 1880.05 854.05C1863.1 848.25 1844 848.65 1827.35 855.3C1817 859.45 1807.65 865.8 1797.3 869.9C1774.1 879.25 1748 876.65 1723.15 879.6C1699.7 882.4 1676.8 890.3 1656.6 902.6C1648.5 907.55 1640.65 913.35 1635.15 921.15C1619.5 943.45 1628.95 977 1650.7 993.4C1659.95 1000.4 1670.8 1004.85 1680.7 1010.8C1701.75 1023.45 1707.9 1040.1 1719.5 1059.55C1725.8 1056.5 1728.3 1047.2 1732.35 1041.65C1737.55 1034.6 1743.95 1028.5 1750.9 1023.2Z" fill="#80C0FE"/>
<path fill-rule="evenodd" clip-rule="evenodd" d="M1719.15 1050.2L1718.75 1049.55C1716.55 1045.9 1714.6 1042.35 1712.65 1038.95C1704.35 1024.1 1697.2 1011.3 1680.25 1001.15C1676.6 998.9 1672.7 996.9 1668.95 994.9C1662.6 991.55 1656 988.1 1650.15 983.7C1629.35 968 1617.8 933.95 1634.45 910.2C1640.5 901.6 1649.25 895.65 1656.15 891.4C1676.4 879.05 1699.55 871.1 1723.05 868.3C1731 867.35 1739.15 866.95 1747 866.6C1763.85 865.8 1781.25 865 1797 858.7C1802.1 856.65 1807.05 854 1811.85 851.45C1816.7 848.85 1821.75 846.15 1827 844.05C1843.8 837.4 1863.25 836.95 1880.35 842.8C1890.6 846.35 1898.15 851.55 1902.9 858.3C1910.2 868.8 1910.85 884 1904.55 898.05C1898.9 910.6 1888.85 920.7 1878.9 929.75C1854.75 951.6 1828 970.5 1799.3 985.9C1795.5 987.9 1791.65 989.9 1787.85 991.9C1775.45 998.3 1762.65 1004.9 1751.4 1013.45C1744.05 1019.1 1737.85 1025.25 1733.05 1031.75C1731.75 1033.55 1730.6 1035.75 1729.4 1038.05C1726.9 1042.8 1724.3 1047.75 1719.85 1049.9L1719.15 1050.2ZM1855.45 840.4C1845.95 840.4 1836.45 842.15 1827.65 845.65C1822.5 847.7 1817.5 850.35 1812.65 852.95C1807.85 855.5 1802.85 858.2 1797.65 860.25C1781.65 866.65 1764.1 867.5 1747.1 868.3C1739.25 868.65 1731.15 869.05 1723.3 870C1700 872.75 1677.1 880.65 1657.1 892.85C1650.3 897 1641.75 902.8 1635.85 911.2C1619.8 934.1 1631.05 967.05 1651.25 982.25C1656.95 986.6 1663.5 990 1669.8 993.3C1673.55 995.3 1677.45 997.35 1681.2 999.6C1698.5 1010 1705.8 1023 1714.2 1038.05C1716 1041.25 1717.85 1044.55 1719.8 1047.9C1723.35 1045.8 1725.65 1041.45 1727.85 1037.2C1729.1 1034.8 1730.25 1032.55 1731.65 1030.65C1736.55 1024 1742.85 1017.75 1750.35 1012.05C1761.7 1003.4 1774.6 996.75 1787.05 990.3C1790.9 988.3 1794.7 986.35 1798.5 984.3C1827.05 968.95 1853.7 950.15 1877.75 928.4C1887.6 919.5 1897.45 909.55 1903 897.3C1907.75 886.75 1909.85 871.2 1901.45 859.25C1896.95 852.8 1889.7 847.8 1879.8 844.4C1872 841.75 1863.75 840.4 1855.45 840.4Z" fill="black"/>
<path d="M1756.55 1079.55C1760.65 1079.52 1764.75 1079.48 1768.85 1079.45C1761.6 1052.05 1770.15 1022.65 1764.7 994.9C1764.5 994 1764.25 993 1763.45 992.6C1762.9 992.3 1762.25 992.3 1761.65 992.4C1742.05 994.75 1750.55 1010.05 1752.1 1024.25C1754.15 1042.65 1755.65 1061.1 1756.55 1079.55Z" fill="white"/>
<path d="M1657.05 1069.7C1661.85 1071.3 1666.8 1072.5 1671.8 1073.2C1668.45 1072.75 1692.15 981.25 1677.25 983.95C1668.25 985.6 1664.95 1006.5 1664.25 1013.2C1662.1 1032.2 1661 1050.9 1657.05 1069.7Z" fill="white"/>
<path d="M1613.05 775.8C1609.4 784.9 1609.6 796 1607.4 805.75C1603.9 821.45 1599.3 837 1598.4 853.15C1597.95 861.35 1598.55 869.95 1602.55 877.15C1605.8 882.9 1611.15 887.35 1617.15 890.2C1627.75 895.3 1640.65 895.4 1651.35 890.5C1659.65 921.65 1671.8 951.5 1689.75 978.25C1707.75 966.9 1724.1 953.1 1738.3 937.25C1739.4 936.05 1740.5 934.7 1740.65 933.05C1740.85 930.95 1739.4 929.1 1738.05 927.45C1727.85 915.1 1719.25 901.15 1714.8 885.7C1708.75 864.5 1715.75 843.35 1711.65 823C1706.2 796.3 1688.1 772.4 1663.85 760C1659.35 757.7 1654.65 755.75 1649.65 755.25C1639.85 754.2 1630.25 758.6 1622.15 764.15C1617.65 767.25 1614.85 771.25 1613.05 775.8Z" fill="#FFCF9F"/>
<path fill-rule="evenodd" clip-rule="evenodd" d="M1696.95 986.85L1696.5 986.15C1679.8 961.4 1667.3 932.9 1658.2 899.15C1647.4 903.75 1634.8 903.5 1624.2 898.45C1617.7 895.3 1612.4 890.55 1609.25 885C1605.75 878.8 1604.4 871 1605 860.55C1605.7 847.85 1608.7 835.35 1611.6 823.25C1612.4 819.85 1613.25 816.4 1614 813C1614.85 809.25 1615.35 805.25 1615.85 801.4C1616.6 795.1 1617.4 788.6 1619.7 782.9C1621.75 777.75 1624.85 773.8 1629.1 770.9C1639.2 763.95 1648.65 760.9 1657.15 761.8C1661.55 762.3 1666.05 763.8 1671.7 766.65C1696 779.1 1714.5 803.5 1719.9 830.25C1721.85 839.7 1721.35 849.45 1720.9 858.9C1720.4 870.05 1719.85 881.55 1723.1 892.9C1727.05 906.75 1734.6 920.3 1746.2 934.35C1747.45 935.9 1749.2 938 1748.95 940.55C1748.8 942.4 1747.6 943.9 1746.35 945.3C1732.1 961.2 1715.75 975.05 1697.65 986.4L1696.95 986.85ZM1659.35 896.7L1659.6 897.7C1668.6 931.4 1681 959.8 1697.45 984.5C1715.1 973.3 1731.15 959.7 1745.1 944.1C1746.15 942.9 1747.15 941.75 1747.25 940.4C1747.4 938.7 1746.25 937.15 1744.85 935.45C1733.1 921.25 1725.45 907.45 1721.45 893.4C1718.1 881.75 1718.65 870.1 1719.2 858.85C1719.65 849.05 1720.1 839.85 1718.25 830.6C1712.9 804.35 1694.75 780.45 1670.9 768.2C1665.45 765.45 1661.15 764 1657 763.55C1648.9 762.65 1639.85 765.6 1630.1 772.3C1626.15 775.05 1623.25 778.7 1621.3 783.55C1619.1 789.05 1618.35 795.4 1617.55 801.6C1617.1 805.5 1616.55 809.55 1615.7 813.4C1614.95 816.8 1614.1 820.25 1613.3 823.65C1610.4 835.65 1607.45 848.1 1606.75 860.65C1606.15 870.75 1607.45 878.25 1610.8 884.15C1613.75 889.4 1618.75 893.9 1624.95 896.85C1635.4 901.85 1647.9 901.95 1658.4 897.15L1659.35 896.7Z" fill="black"/>
<path d="M1513.15 1314.75H1078.3V1290.4H1513.15V1314.75Z" fill="black"/>
<path d="M1608.7 774.85C1620.4 782.45 1639.2 781 1650.45 787.85C1657.15 791.95 1661.65 799.5 1662.05 807.35C1662.3 811.9 1661.25 816.5 1662.05 821C1662.85 825.45 1666.5 830 1671 829.55C1673.7 823.5 1677.2 817.85 1681.45 812.8C1682.25 811.75 1683.25 810.75 1684.55 810.5C1685.9 810.3 1687.25 811.1 1688.35 811.95C1693.4 815.75 1697.05 821.4 1698.55 827.55C1699.7 832.3 1699.6 837.2 1700.35 842C1701.95 851.75 1707.3 860.85 1715.1 866.9C1718.8 846.85 1731.05 826.2 1740.45 808.35C1745 799.65 1747.15 787.7 1740.15 780.75C1736.25 776.9 1730.35 775.6 1724.9 776.1C1719.85 776.6 1715.1 778.8 1710.3 779.55C1711.9 762.6 1714.65 743.75 1702.25 729.95C1690.05 716.4 1665.5 714.6 1654.45 729.05C1649.1 714.35 1639.05 701.45 1626.15 692.6C1624.5 691.45 1622.7 690.35 1620.7 690.2C1618.45 690.05 1616.3 691.1 1614.55 692.5C1603.35 701.15 1607.55 710.25 1611.8 721.25C1618.3 738.2 1613 735.05 1603.05 747.45C1599.95 751.3 1598 756.5 1599.2 761.35C1600.8 767.8 1604.25 772 1608.7 774.85Z" fill="black"/>
<path fill-rule="evenodd" clip-rule="evenodd" d="M1949.75 1496.55H1948.9C1898.65 1495.95 1850.8 1473.45 1808.55 1453.6L1626.65 1368.15L1626.6 1367.7C1615.2 1263.9 1612.4 1158.4 1618.35 1054.15C1619.75 1029.2 1622.7 977.25 1662.55 966.95C1671.4 964.65 1681.4 965.45 1691.1 966.2C1696.65 966.6 1701.95 967 1707 966.85C1720.45 966.45 1734.05 964.75 1747.25 963.1C1758.6 961.65 1770.3 960.2 1781.95 959.55C1823.8 957.25 1857 965 1880.65 982.6C1918.25 1010.55 1930.25 1059.8 1937.7 1108.85C1957 1236.75 1961.1 1366.9 1949.8 1495.75L1949.75 1496.55ZM1628.3 1367L1809.3 1452C1851.15 1471.7 1898.55 1493.95 1948.15 1494.8C1959.35 1366.35 1955.25 1236.6 1936 1109.15C1928.6 1060.45 1916.7 1011.55 1879.65 983.95C1856.3 966.6 1823.5 959 1782.05 961.3C1770.5 961.9 1758.8 963.4 1747.5 964.8C1734.25 966.45 1720.6 968.2 1707.05 968.6C1701.95 968.75 1696.6 968.35 1690.95 967.9C1681.45 967.2 1671.6 966.45 1663 968.65C1629 977.4 1622.25 1016.85 1620.1 1054.25C1614.2 1158.25 1616.95 1263.45 1628.3 1367Z" fill="black"/>
<path d="M1940 1443.9C1967.6 1480.75 1947.4 1536.6 1914.75 1566.1C1878.8 1598.55 1826.25 1608.05 1778.4 1600.45C1730.5 1592.85 1686.4 1569.95 1645.3 1544.2C1604.25 1518.5 1565.1 1489.45 1521.9 1467.45C1513.6 1463.2 1504.7 1459.15 1495.4 1459.45C1486.65 1459.75 1478.55 1463.9 1470.75 1467.95C1381.78 1514.15 1292.8 1560.35 1203.8 1606.55C1184.05 1583.55 1167.6 1557.7 1155.1 1530.1C1265.8 1458.2 1377.85 1385.3 1488.5 1313.45C1519.45 1293.35 1552.5 1272.6 1589.35 1271.6C1620.15 1270.75 1649.4 1283.9 1677.25 1297.15C1729.1 1321.8 1780.35 1347.75 1831 1374.9C1865.6 1393.4 1905 1408.45 1933.45 1436.45C1935.88 1438.82 1938.07 1441.3 1940 1443.9Z" fill="black"/>
<path d="M1372.15 1300.75C1295.5 1271.25 1216.55 1326.35 1236.45 1411.85C1245.65 1451.55 1292.65 1471.6 1326.05 1488.35C1400.98 1525.92 1475.92 1563.5 1550.85 1601.1C1554.3 1602.8 1558.1 1604.6 1561.85 1603.9C1565.75 1603.15 1568.65 1600 1571.25 1597.05C1590.08 1575.72 1608.9 1554.37 1627.7 1533C1576.35 1472.8 1521.05 1415.9 1462.35 1362.8C1435.1 1338.15 1406.4 1313.9 1372.15 1300.75Z" fill="black"/>
<path d="M1780.5 1247.45C1802.7 1252.9 1823.75 1262.6 1846.3 1266.5C1857.8 1225.95 1837.35 1184 1831.45 1142.25C1826.2 1105.05 1833 1066.25 1850.55 1033.05C1854.7 1025.2 1859.75 1017.3 1867.5 1013C1879.85 1006.15 1896 1010.35 1906.75 1019.45C1917.5 1028.6 1924 1041.7 1929.8 1054.55C1951.55 1102.75 1974.4 1158.6 1978.55 1211.75C1982.35 1260.75 1994.4 1312.5 1973.15 1359.65C1968.95 1368.95 1963.65 1377.8 1956.4 1384.9C1912.85 1428 1841.5 1403.3 1792.1 1387.25C1772.45 1380.9 1752.65 1374.45 1734.15 1365.2C1717.65 1356.9 1702.3 1346.45 1685.85 1338.05C1674.1 1332.05 1661.8 1327.15 1649.15 1323.35C1638.45 1320.15 1614 1320.9 1605.7 1315C1590.3 1304.1 1598.6 1254.15 1597.95 1232.8C1598.15 1238.8 1766.65 1244.05 1780.5 1247.45Z" fill="#3C94F8"/>
<path fill-rule="evenodd" clip-rule="evenodd" d="M1891.45 1398.45C1858.95 1398.45 1824.2 1387.15 1795.55 1377.8L1791.85 1376.6C1772.45 1370.3 1752.4 1363.75 1733.75 1354.45C1725.25 1350.2 1716.9 1345.25 1708.85 1340.5C1701.25 1336.05 1693.4 1331.4 1685.45 1327.35C1673.8 1321.4 1661.5 1316.45 1648.9 1312.7C1644.8 1311.45 1638.55 1310.8 1631.9 1310.15C1621.35 1309.05 1610.45 1307.95 1605.2 1304.25C1593.3 1295.8 1595 1266 1596.35 1242C1596.8 1234.15 1597.25 1226.75 1597.05 1221.35L1598.8 1221.3C1598.8 1221.15 1598.75 1221.05 1598.7 1221C1601.85 1224.25 1664.55 1227.65 1710.4 1230.15C1745.1 1232.05 1775.1 1233.7 1780.7 1235.1C1790.15 1237.4 1799.55 1240.55 1808.6 1243.6C1820.6 1247.6 1833 1251.75 1845.65 1254.05C1853.15 1226.7 1845.95 1198.1 1839.05 1170.4C1835.8 1157.45 1832.45 1144.05 1830.6 1130.85C1825.3 1093.5 1832.15 1054.5 1849.75 1021.15C1853.75 1013.6 1858.9 1005.3 1867.1 1000.75C1880.55 993.2 1897.4 998.9 1907.3 1007.3C1918.25 1016.55 1924.8 1029.85 1930.6 1042.7C1953.5 1093.5 1975.3 1147.75 1979.4 1200.2C1980.15 1209.7 1981.2 1219.5 1982.25 1228.95C1986.65 1268.95 1991.15 1310.3 1973.95 1348.55C1969.1 1359.2 1963.6 1367.55 1957.05 1374.05C1938.7 1392.15 1915.7 1398.45 1891.45 1398.45ZM1598.85 1222.9C1598.9 1228.15 1598.5 1234.95 1598.1 1242.1C1596.75 1265.65 1595.1 1294.95 1606.2 1302.8C1611.05 1306.25 1622.25 1307.4 1632.1 1308.4C1638.8 1309.1 1645.15 1309.75 1649.4 1311.05C1662.1 1314.85 1674.5 1319.8 1686.25 1325.8C1694.25 1329.9 1702.1 1334.5 1709.75 1339C1717.75 1343.75 1726.1 1348.65 1734.55 1352.9C1753.05 1362.15 1773.05 1368.65 1792.4 1374.95L1796.05 1376.15C1845.7 1392.3 1913.65 1414.45 1955.8 1372.8C1962.2 1366.5 1967.6 1358.3 1972.35 1347.8C1989.4 1310 1984.9 1268.9 1980.55 1229.15C1979.5 1219.65 1978.4 1209.85 1977.65 1200.3C1973.6 1148.15 1951.85 1094.05 1929 1043.4C1923.3 1030.75 1916.85 1017.65 1906.2 1008.65C1896.7 1000.6 1880.7 995.15 1867.95 1002.25C1860.15 1006.6 1855.15 1014.65 1851.3 1021.95C1833.85 1055 1827.1 1093.6 1832.3 1130.65C1834.15 1143.75 1837.5 1157.1 1840.75 1170C1847.8 1198.15 1855.05 1227.25 1847.1 1255.25L1846.9 1256L1846.15 1255.9C1833.1 1253.6 1820.35 1249.35 1808.05 1245.25C1799 1242.2 1789.65 1239.1 1780.3 1236.8C1774.85 1235.45 1744.9 1233.8 1710.3 1231.9C1633.3 1227.7 1605.6 1225.55 1598.85 1222.9Z" fill="black"/>
<path d="M1498.05 1241.8C1506.35 1234.7 1515.2 1227.7 1525.75 1224.75C1534.05 1222.45 1542.9 1222.85 1551.55 1223.3C1567.5 1224.1 1583.05 1222.25 1598.8 1223.7C1598.15 1230.3 1595.4 1288.5 1598.6 1288.45C1546.05 1290.4 1505.8 1323.6 1503.3 1321.15C1497.2 1309.8 1504.35 1300.8 1515.75 1294.75C1527.1 1288.75 1543.75 1281.3 1552.45 1271.8C1528.6 1277.2 1506.15 1288.6 1487.7 1304.65C1475.75 1301.7 1489.3 1287.8 1497.25 1282.25C1510.35 1273.1 1513.15 1272.05 1530.75 1261.8C1509.35 1271 1475.5 1298.25 1470.9 1297.3C1460.1 1291.3 1490.65 1263.3 1508.1 1253.05C1491.4 1265.3 1460.6 1294.75 1457.25 1289.5C1454.5 1272.75 1486.45 1251.65 1498.05 1241.8Z" fill="#FFCF9F"/>
<path fill-rule="evenodd" clip-rule="evenodd" d="M1499.95 1329.75C1499.55 1329.75 1499.25 1329.6 1498.95 1329.35L1498.8 1329.15C1496.45 1324.75 1495.85 1320.45 1497.1 1316.35C1498.8 1310.85 1503.8 1305.75 1511.6 1301.6C1513.55 1300.55 1515.65 1299.5 1517.85 1298.35C1527.2 1293.6 1538.6 1287.75 1545.95 1280.95C1523.3 1286.55 1502.15 1297.55 1484.55 1312.9L1484.2 1313.2L1483.8 1313.1C1480.7 1312.35 1478.9 1310.8 1478.45 1308.55C1477.75 1304.85 1481.25 1299.85 1485.45 1295.6C1474.9 1302.6 1469.15 1306.2 1467 1305.75L1466.75 1305.65C1465 1304.65 1464.05 1303.1 1464.05 1301.1C1464 1298.25 1465.8 1294.6 1468.75 1290.65C1461.75 1296 1456.85 1298.95 1454.35 1298.55C1453.7 1298.45 1453.15 1298.1 1452.8 1297.55L1452.7 1297.25C1450.3 1282.9 1471.95 1265.9 1486.3 1254.7C1489.25 1252.4 1491.8 1250.4 1493.75 1248.7C1502.05 1241.65 1511.05 1234.5 1521.75 1231.55C1530.35 1229.15 1539.25 1229.6 1547.85 1230.05C1554.95 1230.35 1562.1 1230.2 1569 1230.05C1577.55 1229.85 1586.4 1229.6 1595.15 1230.4L1596.05 1230.5L1595.95 1231.35C1595.15 1239.6 1592.9 1292.2 1595.25 1295.35C1595.2 1295.3 1595.05 1295.2 1594.85 1295.2L1594.9 1296.9C1556.85 1298.35 1525.1 1316.3 1509.9 1324.95C1503.95 1328.3 1501.35 1329.75 1499.95 1329.75ZM1551.25 1277.95L1549.35 1280C1542.05 1287.95 1529.05 1294.6 1518.65 1299.9C1516.45 1301.05 1514.35 1302.1 1512.4 1303.15C1505 1307.05 1500.3 1311.8 1498.8 1316.85C1497.7 1320.4 1498.15 1324.15 1500.15 1328C1501.3 1327.8 1505.05 1325.7 1509 1323.45C1524.2 1314.85 1555.55 1297.05 1593.45 1295.25C1591.15 1286.4 1593.65 1239.4 1594.15 1232.05C1585.75 1231.4 1577.25 1231.6 1569.05 1231.8C1562.1 1231.95 1554.95 1232.1 1547.8 1231.75C1539.3 1231.35 1530.5 1230.9 1522.25 1233.2C1511.85 1236.1 1503.05 1243.1 1494.9 1250.05C1492.9 1251.75 1490.35 1253.75 1487.35 1256.1C1473.45 1267 1452.45 1283.45 1454.35 1296.75C1454.42 1296.78 1454.52 1296.82 1454.65 1296.85C1457.35 1297.25 1465.5 1291.15 1474.25 1284.05C1483.1 1274.6 1495.75 1264.7 1503.95 1259.9L1504.9 1261.35C1499.65 1265.2 1493.1 1270.7 1486.15 1276.5C1482.25 1279.75 1478.6 1282.75 1475.3 1285.4C1469.65 1291.55 1465.75 1297.35 1465.8 1301.1C1465.8 1302.4 1466.35 1303.4 1467.45 1304.05C1467.48 1304.05 1467.5 1304.05 1467.5 1304.05C1469.7 1304.05 1479.15 1297.7 1488.3 1291.6C1500.3 1283.5 1515.3 1273.5 1526.65 1268.6L1527.45 1270.15C1523.05 1272.7 1519.6 1274.7 1516.65 1276.35C1507.85 1281.4 1503.8 1283.7 1494.05 1290.55C1487.7 1295 1479.3 1303.6 1480.2 1308.25C1480.45 1309.7 1481.6 1310.7 1483.75 1311.3C1502.25 1295.25 1524.65 1283.95 1548.5 1278.55L1551.25 1277.95Z" fill="black"/>
<path d="M1384.65 1314.3H1101.15L1050.45 1073H1334L1384.65 1314.3Z" fill="black"/>
<path d="M1362.05 1314.3H1078.55L1027.85 1073H1311.35L1362.05 1314.3Z" fill="white"/>
<path fill-rule="evenodd" clip-rule="evenodd" d="M1357.9 1315.15H1072.6L1021.55 1072.1H1306.85L1357.9 1315.15ZM1074 1313.45H1355.75L1305.45 1073.85H1023.7L1074 1313.45Z" fill="black"/>
<path d="M1219.8 1182.55C1219.8 1202.15 1203.95 1218 1184.4 1218C1164.85 1218 1148.95 1202.15 1148.95 1182.55C1148.95 1163 1164.85 1147.15 1184.4 1147.15C1184.4 1147.15 1180.3 1192.1 1219.8 1182.55Z" fill="#80C0FE"/>
<path d="M2004.75 594.55L2037.8 733.2L2226.85 564.1L2004.75 594.55Z" fill="#80C0FE"/>
<path fill-rule="evenodd" clip-rule="evenodd" d="M2021.3 722.5L1987.75 581.45L2213.6 550.5L2021.3 722.5ZM1989.85 582.95L2022.3 719.25L2208.15 553.05L1989.85 582.95Z" fill="black"/>
<path d="M1378.8 441.95C1378.8 497.9 1333.4 543.3 1277.45 543.3C1221.45 543.3 1176.05 497.9 1176.05 441.95C1176.05 385.95 1221.45 340.55 1277.45 340.55C1333.4 340.55 1378.8 385.95 1378.8 441.95Z" fill="#3C94F8"/>
<path fill-rule="evenodd" clip-rule="evenodd" d="M1256.5 523.25C1200.1 523.25 1154.25 477.35 1154.25 421C1154.25 364.6 1200.1 318.75 1256.5 318.75C1312.9 318.75 1358.75 364.6 1358.75 421C1358.75 477.35 1312.9 523.25 1256.5 523.25ZM1256.5 320.5C1201.05 320.5 1156 365.55 1156 421C1156 476.4 1201.05 521.5 1256.5 521.5C1311.9 521.5 1357 476.4 1357 421C1357 365.55 1311.9 320.5 1256.5 320.5Z" fill="black"/>
<path d="M2105.1 1481.4C2108.75 1474 2113 1466.8 2119.05 1461.2C2126.9 1454 2137.2 1450.05 2147.45 1447.3C2164.15 1442.85 2183.1 1441.35 2197.7 1450.6C2196.95 1440.85 2187.6 1434.35 2179.2 1429.35C2173.15 1425.75 2166.85 1422.1 2159.85 1421.7C2152.65 1421.3 2145.8 1424.5 2139.65 1428.3C2130.85 1433.8 2122.9 1440.75 2116.35 1448.8C2122.55 1430.4 2131.1 1412.7 2141.65 1396.4C2142.8 1394.65 2143.95 1392.9 2145.65 1391.65C2147.6 1390.3 2150.05 1389.8 2152.4 1389.3C2166 1386.6 2179.75 1383.85 2193.65 1384.05C2207.55 1384.2 2221.8 1387.55 2232.9 1395.9C2234.4 1397 2236.1 1398.3 2237.95 1398C2239.55 1397.75 2240.75 1396.35 2241.65 1394.95C2247.95 1385.05 2246.65 1371.55 2240.3 1361.7C2233.95 1351.85 2223.3 1345.35 2212.15 1341.85C2200.4 1338.15 2187.45 1337.5 2175.95 1341.85C2158.5 1348.4 2146.8 1365.7 2142.4 1383.85C2140.85 1373.25 2140.65 1362.45 2141.7 1351.75C2142.55 1343.65 2144.6 1334.8 2151.2 1330C2154.9 1327.3 2160.6 1324.5 2159.3 1320.1C2155.1 1319.97 2150.88 1319.83 2146.65 1319.7C2145.45 1319.65 2144.2 1319.65 2143.1 1320.1C2140 1321.4 2139.5 1325.5 2139.45 1328.85C2138.9 1354.8 2135.45 1380.7 2129.1 1405.9C2122.9 1386.75 2109.1 1370.65 2092.65 1358.95C2084.7 1353.3 2075.9 1348.5 2066.35 1346.55C2056.75 1344.6 2046.3 1345.7 2038.1 1351.05C2050.45 1364.8 2058.15 1382.65 2072.5 1394.25C2086.55 1405.55 2104.95 1409.35 2122.65 1412.75C2112.55 1436.72 2102.87 1460.85 2093.6 1485.15C2084 1463.9 2059.1 1450.75 2036.15 1454.8C2041.05 1460.3 2042.2 1468.15 2045.3 1474.8C2052 1489.1 2069.2 1497.6 2084.6 1494.2C2079.75 1514.2 2074.95 1537.25 2076.7 1557.85C2090.8 1553.25 2087.4 1539.05 2089.85 1526.5C2092.9 1510.85 2098.05 1495.65 2105.1 1481.4Z" fill="#90EF81"/>
<path d="M2108.65 1298.45C2107.85 1296.5 2107.3 1294.05 2108.65 1292.45C2109.5 1291.4 2110.9 1291 2112.25 1290.75C2123.4 1288.55 2135.55 1293 2142.7 1301.8C2139.45 1290 2127.85 1282.65 2121.3 1272.3C2114.35 1261.35 2113.6 1246.8 2119.35 1235.15C2125.4 1222.95 2137.4 1215 2148.9 1207.6C2156.65 1219.4 2163.4 1232.4 2164.65 1246.5C2166 1262 2160.55 1277.2 2155.25 1291.8C2159.82 1285.83 2164.4 1279.85 2169 1273.85C2173.4 1268.1 2177.85 1262.3 2183.15 1257.4C2196.1 1245.5 2214.2 1239.45 2231.65 1241.15C2225.95 1247.4 2223 1255.55 2219.35 1263.15C2215.4 1271.45 2210.45 1279.2 2204.65 1286.3C2201.3 1290.4 2197.6 1294.35 2192.85 1296.65C2183.8 1301.1 2171.9 1299.1 2164.3 1305.75C2182.6 1303.8 2201.5 1315.25 2208.25 1332.4C2198.98 1332.2 2189.7 1332 2180.4 1331.8C2172.9 1331.65 2164.95 1331.4 2158.45 1327.55C2152.15 1323.8 2152.6 1321.35 2145.65 1320.55C2140.45 1319.95 2135.75 1320.4 2130.6 1318.6C2120.95 1315.25 2112.55 1308 2108.65 1298.45Z" fill="white"/>
<path d="M2153.75 1309.3C2156.65 1310.55 2160.35 1309.65 2162.3 1307.15C2164.25 1304.7 2164.35 1300.9 2162.5 1298.35C2161.25 1296.65 2159.35 1295.6 2157.35 1295C2153.9 1294.1 2149.55 1295.05 2148.25 1298.3C2147.4 1300.35 2148.05 1302.8 2149.3 1304.6C2150.55 1306.4 2152.4 1307.75 2154.2 1309.05" fill="#90EF81"/>
<path d="M2213 1356.2C2204 1351.15 2194 1347.05 2183.65 1347.3C2173.25 1347.55 2162.55 1353 2158.45 1362.5C2165.6 1355.35 2175.1 1350.7 2185.15 1349.5C2176.35 1358.6 2160.65 1360.6 2155.45 1372.15C2166.9 1365.5 2180 1358.6 2192.7 1362.25C2183.6 1364.1 2175.1 1368.75 2168.65 1375.4C2178.45 1370.45 2189.1 1365.3 2199.9 1367.25C2208.5 1368.85 2215.65 1374.65 2221.95 1380.7C2221.05 1373.9 2215.65 1368.7 2210.6 1364.1C2217.5 1366.55 2223.6 1371.2 2227.8 1377.15C2226.63 1374.35 2225.47 1371.53 2224.3 1368.7C2226.4 1371 2228.45 1374.75 2231.55 1374.15C2229.45 1366.05 2219.9 1360.1 2213 1356.2Z" fill="white"/>
<path d="M2068.2 1353.45C2082.3 1356.15 2092.25 1368.65 2099.35 1381.1C2092.3 1376.6 2084.85 1372.7 2077.2 1369.35C2085.4 1375.6 2093.3 1382.25 2100.9 1389.25C2089.15 1385.6 2077.8 1380.55 2067.15 1374.35C2077.15 1382.05 2087.5 1389.3 2098.25 1395.95C2093.05 1395.55 2087.95 1394.05 2083.4 1391.5C2087.35 1395.25 2092.3 1398 2097.6 1399.4C2100.3 1400.1 2103.1 1400.45 2105.8 1401.15C2110.05 1402.3 2114.05 1404.35 2118 1406.35C2113.63 1402.15 2109.28 1397.95 2104.95 1393.75C2108.4 1393.95 2111.75 1395.3 2114.35 1397.55C2113.7 1395.35 2112.45 1393.4 2110.8 1391.85C2113.4 1394.2 2115.05 1397.3 2117.95 1399.45C2120.55 1392.5 2103.95 1378.85 2099.05 1374.4C2089.8 1366 2079.4 1358.9 2068.2 1353.45Z" fill="white"/>
<path d="M2152.85 1430.1C2147.7 1431.25 2143.3 1434.6 2139.15 1437.9C2143.9 1435.85 2149.15 1435.15 2154.25 1435.8C2144.1 1438.3 2134.3 1442.3 2125.35 1447.65C2131.85 1447.05 2138.3 1445.6 2144.4 1443.4C2147.8 1442.15 2151.1 1440.7 2154.6 1440.15C2158.9 1439.45 2173.5 1443.75 2172.3 1435.9C2171.4 1429.8 2157.25 1429.1 2152.85 1430.1Z" fill="white"/>
<path d="M2084.7 1477.85C2074.9 1467.65 2061.5 1461 2047.45 1459.35C2055.1 1463.15 2062.55 1467.25 2069.85 1471.75C2063.45 1473.4 2056.3 1471.75 2051.25 1467.5C2057.55 1475.3 2066.75 1480.75 2076.6 1482.5C2072.53 1483.33 2068.45 1484.17 2064.35 1485C2068.85 1484.05 2098.4 1492.05 2084.7 1477.85Z" fill="white"/>
<path d="M794.85 1508.2C791.9 1502.2 788.4 1496.3 783.5 1491.75C777.1 1485.85 768.7 1482.65 760.3 1480.4C746.65 1476.75 731.2 1475.5 719.3 1483.1C719.9 1475.1 727.55 1469.8 734.4 1465.7C739.3 1462.8 744.5 1459.8 750.2 1459.5C756.05 1459.15 761.65 1461.75 766.65 1464.85C773.85 1469.35 780.35 1475.05 785.7 1481.6C780.65 1466.55 773.65 1452.15 765.05 1438.8C764.1 1437.4 763.15 1435.95 761.75 1434.95C760.15 1433.85 758.2 1433.4 756.3 1433.05C745.15 1430.8 733.9 1428.6 722.6 1428.75C711.25 1428.9 699.6 1431.6 690.55 1438.4C689.3 1439.3 687.95 1440.35 686.45 1440.15C685.1 1439.95 684.15 1438.8 683.4 1437.65C678.25 1429.55 679.3 1418.55 684.5 1410.5C689.7 1402.45 698.35 1397.15 707.5 1394.3C717.05 1391.3 727.65 1390.75 737.05 1394.25C751.3 1399.65 760.85 1413.75 764.45 1428.55C765.7 1419.9 765.85 1411.1 765 1402.4C764.3 1395.75 762.65 1388.55 757.25 1384.6C754.2 1382.4 749.55 1380.15 750.6 1376.5C754.067 1376.4 757.517 1376.3 760.95 1376.2C761.95 1376.2 762.95 1376.15 763.85 1376.55C766.4 1377.6 766.8 1380.95 766.85 1383.65C767.25 1404.85 770.1 1426 775.25 1446.6C780.35 1430.95 791.6 1417.8 805.05 1408.25C811.55 1403.65 818.7 1399.75 826.55 1398.15C834.35 1396.55 842.9 1397.45 849.6 1401.8C839.5 1413 833.2 1427.6 821.5 1437.05C810.05 1446.3 795 1449.4 780.55 1452.2C788.783 1471.77 796.683 1491.45 804.25 1511.25C812.1 1493.9 832.45 1483.2 851.2 1486.5C847.15 1491 846.25 1497.4 843.7 1502.85C838.2 1514.5 824.2 1521.45 811.6 1518.7C815.55 1535 819.5 1553.8 818.1 1570.6C806.55 1566.9 809.3 1555.25 807.3 1545.05C804.85 1532.3 800.65 1519.85 794.85 1508.2Z" fill="#90EF81"/>
<path d="M791.95 1358.85C792.65 1357.25 793.1 1355.3 792 1353.95C791.3 1353.1 790.15 1352.75 789.05 1352.55C779.95 1350.8 770 1354.4 764.15 1361.6C766.85 1351.95 776.3 1345.95 781.65 1337.5C787.35 1328.6 787.95 1316.65 783.25 1307.2C778.3 1297.2 768.5 1290.7 759.1 1284.7C752.8 1294.35 747.3 1304.95 746.3 1316.45C745.15 1329.1 749.6 1341.5 753.95 1353.45C750.217 1348.55 746.483 1343.67 742.75 1338.8C739.15 1334.1 735.5 1329.35 731.15 1325.35C720.6 1315.65 705.85 1310.7 691.55 1312.05C696.2 1317.15 698.6 1323.85 701.6 1330.05C704.85 1336.8 708.9 1343.15 713.6 1348.95C716.3 1352.25 719.35 1355.5 723.2 1357.4C730.65 1361 740.35 1359.4 746.55 1364.8C731.6 1363.25 716.2 1372.6 710.65 1386.55C718.25 1386.42 725.833 1386.27 733.4 1386.1C739.55 1385.95 746 1385.75 751.3 1382.6C756.5 1379.55 756.1 1377.55 761.75 1376.9C766.05 1376.45 769.85 1376.8 774.05 1375.3C781.9 1372.6 788.8 1366.65 791.95 1358.85Z" fill="white"/>
<path d="M755.15 1367.7C752.8 1368.75 749.8 1368 748.2 1365.95C746.55 1363.95 746.5 1360.85 748 1358.8C749 1357.4 750.6 1356.5 752.25 1356.05C755 1355.3 758.6 1356.05 759.65 1358.75C760.35 1360.4 759.8 1362.4 758.8 1363.85C757.75 1365.35 756.25 1366.45 754.8 1367.5" fill="#FFD13F"/>
<path d="M706.8 1406C714.15 1401.85 722.3 1398.5 730.75 1398.7C739.2 1398.95 748 1403.4 751.3 1411.15C745.5 1405.35 737.7 1401.5 729.55 1400.5C736.7 1407.95 749.55 1409.6 753.75 1419C744.45 1413.6 733.75 1407.95 723.35 1410.95C730.8 1412.45 737.7 1416.25 743 1421.7C735 1417.65 726.3 1413.45 717.45 1415.05C710.45 1416.3 704.65 1421.05 699.5 1426C700.2 1420.45 704.6 1416.2 708.75 1412.45C703.1 1414.45 698.15 1418.25 694.7 1423.1C695.667 1420.8 696.633 1418.5 697.6 1416.2C695.85 1418.1 694.15 1421.15 691.65 1420.65C693.35 1414.05 701.15 1409.15 706.8 1406Z" fill="#EAEAEA"/>
<path d="M825 1403.75C813.5 1405.95 805.4 1416.2 799.6 1426.35C805.35 1422.7 811.4 1419.45 817.65 1416.75C810.95 1421.85 804.5 1427.3 798.3 1433C807.9 1430 817.15 1425.9 825.85 1420.8C817.7 1427.15 809.25 1433.05 800.45 1438.45C804.7 1438.15 808.9 1436.9 812.6 1434.8C809.35 1437.9 805.3 1440.15 801 1441.25C798.8 1441.85 796.5 1442.15 794.3 1442.7C790.8 1443.65 787.6 1445.3 784.35 1446.95C787.917 1443.52 791.467 1440.1 795 1436.7C792.2 1436.8 789.45 1437.9 787.35 1439.75C787.85 1438 788.85 1436.35 790.2 1435.1C788.1 1437.05 786.75 1439.55 784.4 1441.35C782.25 1435.6 795.8 1424.5 799.85 1420.85C807.35 1414 815.85 1408.2 825 1403.75Z" fill="#EAEAEA"/>
<path d="M755.9 1466.35C760.1 1467.3 763.7 1470 767.05 1472.7C763.2 1471.05 758.9 1470.45 754.75 1471C763.05 1473 771 1476.3 778.35 1480.65C773.05 1480.2 767.8 1479 762.8 1477.2C760.05 1476.2 757.35 1475 754.45 1474.55C750.95 1474 739.05 1477.45 740 1471.05C740.75 1466.05 752.3 1465.5 755.9 1466.35Z" fill="#EAEAEA"/>
<path d="M811.55 1505.3C819.55 1497 830.5 1491.55 841.95 1490.2C835.717 1493.3 829.617 1496.68 823.65 1500.35C828.9 1501.65 834.7 1500.35 838.85 1496.85C833.7 1503.25 826.2 1507.7 818.15 1509.1C821.483 1509.8 824.817 1510.48 828.15 1511.15C824.5 1510.4 800.35 1516.95 811.55 1505.3Z" fill="#EAEAEA"/>
<path d="M800.5 1218.15C801.133 1216.98 801.767 1215.8 802.4 1214.6C799 1240.95 802.65 1268.2 812.9 1292.7C802.55 1281.05 788.65 1273.05 777.45 1262.15C769.45 1254.35 762.95 1245.1 755.15 1237.1C738.5 1219.95 715.8 1208.8 692.05 1206.1C683.35 1205.1 674.4 1205.15 666.2 1202.1C670.9 1204.75 672.95 1210.3 675.1 1215.25C686 1240.15 709.7 1258.95 736.35 1264C746.2 1265.8 756.3 1265.9 766.05 1268C786.5 1272.45 804.75 1286.3 814.55 1304.85C821.05 1317.2 823.9 1331.2 829.6 1344C837.05 1360.75 849.2 1374.85 858.85 1390.45C866.2 1402.35 872.05 1415.15 876.3 1428.5C877.15 1431.1 877.9 1433.75 878.7 1436.35C886.7 1463.8 894.45 1490.7 910.75 1514.2C918.55 1525.4 927.7 1536.05 931.75 1549.1C935.383 1548.7 939.017 1548.32 942.65 1547.95C931.317 1529.52 919.967 1511.1 908.6 1492.7C903.15 1483.9 897.6 1474.75 896.3 1464.45C894.85 1453.15 898.8 1441.8 904.25 1431.85C909.7 1421.85 916.75 1412.8 922.25 1402.85C928.25 1392 932.4 1380.3 937.15 1368.9C941.65 1358.05 948.65 1348.45 953.35 1338.1C940.2 1336.7 928.9 1371.2 923.85 1380.6C913.05 1400.9 902.25 1421.18 891.45 1441.45C880.217 1418.52 868.983 1395.58 857.75 1372.65C854.95 1366.9 852.05 1360.85 852 1354.4C852 1349.6 853.55 1345 855.55 1340.65C862.75 1324.55 875.65 1311.05 891.4 1303.05C899.65 1298.85 908.7 1296.1 916.15 1290.6C923.55 1285.15 928.8 1277.35 933.3 1269.35C937.25 1262.25 940.75 1254.7 942 1246.65C945.3 1225 932 1202.9 937.1 1181.6C903.7 1216.2 871.7 1253.15 851 1296.55C843.7 1311.8 837.8 1329 841.8 1345.45C822.45 1304 804.65 1260.15 805.1 1214.4C803.833 1213.9 802.567 1213.4 801.3 1212.9" fill="#90EF81"/>
<path d="M958.3 1273.5C961 1271.3 964.15 1269.4 967.6 1269.2C974.7 1268.8 980.15 1275.55 982.5 1282.25C986.6 1293.65 985.4 1306.85 979.3 1317.3C988.6 1316.5 998.15 1318.2 1006.6 1322.3C1014.15 1325.95 1021.45 1332.85 1020.7 1341.15C1020 1348.85 1012.45 1354.4 1004.85 1355.5C997.25 1356.6 989.6 1354.3 982.25 1352C988.8 1361.55 992.5 1373 992.75 1384.55C992.9 1390.25 991.3 1397.2 985.85 1399C983.85 1399.65 981.7 1399.45 979.6 1399.05C961.15 1395.6 947.45 1375.75 950.8 1357.3C940.85 1359.6 929.8 1356.75 922.2 1349.9C903.25 1332.95 941.15 1333.6 944 1324.4C946.4 1316.8 940.9 1305.9 943.2 1297.05C945.55 1287.85 950.9 1279.4 958.3 1273.5Z" fill="white"/>
<path d="M753.1 1202.4C750.3 1199.15 747.5 1195 748.5 1190.8C749.85 1184.9 757.65 1182.9 763.5 1184.55C769.35 1186.2 774.3 1190.15 780.15 1191.8C778.25 1186.4 776.8 1180.6 777.75 1174.9C778.65 1169.25 782.35 1163.7 787.85 1162.05C793.3 1160.4 799.3 1162.85 803.35 1166.75C807.45 1170.7 809.95 1175.9 812.35 1181.05C817.45 1174.55 825.1 1169.8 833.4 1169.35C841.65 1168.95 850.3 1173.4 853.7 1180.9C858.35 1191.1 852.8 1203.15 845.45 1211.6C851.15 1210.25 856.7 1217.45 854 1222.65C853.15 1224.2 851.8 1225.45 850.4 1226.55C820 1251.35 775.2 1228 753.1 1202.4Z" fill="white"/>
<path d="M791.85 1212.45C791.85 1208.5 794.75 1204.85 798.45 1203.5C802.15 1202.15 806.5 1203 809.7 1205.3C810.8 1206.1 811.85 1207.1 812.45 1208.35C814.6 1212.5 811.15 1217.8 806.65 1219.05C801.4 1220.5 795.3 1217.25 793.55 1212.1" fill="#EF8181"/>
<path d="M973.7 1335C973.05 1333.75 972.05 1332.8 970.9 1332C967.7 1329.7 963.4 1328.85 959.7 1330.2C958.75 1330.5 957.9 1331 957.1 1331.55C955.05 1330.3 953.15 1328.8 951.65 1326.9C949.85 1324.6 948.6 1321.9 947.8 1319.15C947.75 1319 947.5 1319 947.5 1319.2C947.85 1324.5 951.55 1329.8 956.4 1332.15C954.4 1333.95 953.1 1336.45 953.1 1339.15L954.8 1338.75C956.5 1343.9 962.6 1347.2 967.85 1345.7C972.35 1344.45 975.8 1339.15 973.7 1335Z" fill="#EF8181"/>
<path d="M777.85 1265.6C775 1263.4 771.95 1261.75 768.75 1260.05C765.45 1258.32 762.15 1256.58 758.85 1254.85C756.15 1253.42 753.45 1251.97 750.75 1250.5C750.6 1250 750.35 1249.5 750.15 1249C749.517 1247.57 748.85 1246.15 748.15 1244.75C746.717 1241.85 745.1 1239.03 743.3 1236.3C739.8 1230.9 735.85 1225.6 730.6 1221.85C730.45 1221.75 730.25 1221.85 730.35 1222.05C734.05 1227.15 738.15 1231.9 741.5 1237.25C743.167 1239.88 744.683 1242.62 746.05 1245.45C746.583 1246.55 747.1 1247.67 747.6 1248.8C745.8 1247.83 744.017 1246.87 742.25 1245.9C742.65 1245.1 741.75 1244.35 741 1244.55C740.767 1244.58 740.517 1244.67 740.25 1244.8C739.95 1244.63 739.65 1244.47 739.35 1244.3C730.85 1239.63 722.383 1234.9 713.95 1230.1C714.45 1229.85 714.95 1229.5 715.35 1229C715.55 1228.8 715.5 1228.35 715.15 1228.3C713.95 1228.15 712.85 1228.45 711.7 1228.75C711.667 1228.78 711.65 1228.8 711.65 1228.8C707.983 1226.73 704.333 1224.65 700.7 1222.55C697.167 1220.48 693.633 1218.42 690.1 1216.35C686.45 1214.2 682.8 1212 678.9 1210.25C678.75 1210.2 678.5 1210.45 678.7 1210.6C684.4 1215.05 690.95 1218.5 697.15 1222.2C701.217 1224.63 705.3 1227.03 709.4 1229.4C708.867 1229.53 708.333 1229.65 707.8 1229.75C705.05 1230.3 702.3 1230.6 699.5 1230.7C694.1 1230.85 688.5 1230 683.25 1228.8C682.9 1228.7 682.7 1229.2 683.05 1229.35C685.55 1230.6 688.15 1231.6 690.95 1232.1C693.7 1232.55 696.55 1232.75 699.4 1232.75C702.167 1232.72 704.917 1232.43 707.65 1231.9C709.083 1231.63 710.517 1231.28 711.95 1230.85C713.483 1231.75 715 1232.63 716.5 1233.5C723.8 1237.7 731.15 1241.83 738.55 1245.9C738.25 1246.1 737.983 1246.28 737.75 1246.45C736.55 1247.15 735.35 1247.82 734.15 1248.45C731.75 1249.7 729.2 1250.75 726.65 1251.6C724.15 1252.4 721.65 1252.95 719.05 1253.5C716.35 1254 713.55 1254.5 710.75 1254.85C710.55 1254.85 710.5 1255.2 710.75 1255.25C713.5 1255.55 716.25 1255.7 719 1255.4C721.8 1255.1 724.6 1254.4 727.3 1253.6C730 1252.75 732.65 1251.7 735.2 1250.45C736.433 1249.88 737.65 1249.23 738.85 1248.5C739.5 1248.1 740.25 1247.7 740.9 1247.25C743.533 1248.68 746.15 1250.12 748.75 1251.55C748.783 1251.62 748.817 1251.68 748.85 1251.75C749.3 1252.6 749.8 1253.15 750.35 1253.95C750.6 1254.3 751.3 1254.15 751.25 1253.65C751.25 1253.38 751.233 1253.13 751.2 1252.9C752.567 1253.63 753.917 1254.35 755.25 1255.05C758.917 1257.05 762.6 1259.03 766.3 1261C770 1262.95 773.55 1264.9 777.55 1266.1C777.85 1266.2 778.05 1265.8 777.85 1265.6Z" fill="#EAEAEA"/>
<path d="M728.75 1235.7C726.15 1230.15 721.5 1225.6 716.9 1221.65C714.6 1219.65 712.183 1217.78 709.65 1216.05C708.35 1215.2 707.05 1214.3 705.7 1213.55C704.3 1212.7 702.75 1212.2 701.25 1211.6C701.05 1211.55 700.85 1211.8 701.05 1211.9C702.25 1212.8 703.35 1213.75 704.6 1214.65C705.85 1215.5 707.15 1216.3 708.35 1217.2C710.817 1219 713.183 1220.92 715.45 1222.95C717.65 1225 719.75 1227.1 721.75 1229.3C723.85 1231.65 725.75 1234 728 1236.15C728.3 1236.45 728.9 1236.1 728.75 1235.7Z" fill="#EAEAEA"/>
<path d="M934.7 1233.75C930.05 1241.15 923.3 1246.75 915.85 1251.15C908.2 1255.6 899.9 1259 892.7 1264.2C892.267 1264.5 891.85 1264.82 891.45 1265.15C899 1254.65 906.45 1244.15 913.1 1233.05C916.3 1227.8 919.2 1222.4 921.9 1216.85C923.233 1214.05 924.483 1211.22 925.65 1208.35C926.85 1205.4 927.55 1202.35 927.9 1199.25C928 1198.65 927.25 1198.3 926.9 1198.85C925.5 1201.2 924.05 1203.6 923 1206.15C921.933 1208.75 920.8 1211.3 919.6 1213.8C917.25 1218.85 914.55 1223.75 911.8 1228.55C907.4 1236.1 902.65 1243.4 897.7 1250.55C898.067 1248.85 898.4 1247.13 898.7 1245.4C899.1 1242.9 899.45 1240.4 899.65 1237.85C899.75 1236.6 899.9 1235.3 899.9 1234.05C899.9 1232.7 899.6 1231.6 899.25 1230.35C899.15 1229.9 898.55 1230 898.4 1230.35C898 1231.6 897.7 1232.65 897.55 1233.95C897.4 1235.15 897.35 1236.4 897.25 1237.65C897 1240.2 896.7 1242.75 896.35 1245.3C895.983 1247.73 895.517 1250.17 894.95 1252.6C894.75 1253.6 894.45 1254.6 894.15 1255.65C893.95 1255.95 893.733 1256.25 893.5 1256.55C886.25 1266.9 878.75 1277.2 871.8 1287.8C872.65 1285.25 873.35 1282.65 873.95 1280C874.7 1276.9 875.25 1273.75 875.55 1270.55C875.9 1267.35 875.8 1264.15 875.5 1260.95C875.45 1260.65 874.95 1260.55 874.95 1260.9C874.6 1263.95 874.1 1267.05 873.75 1270.1C873.35 1273.3 872.85 1276.45 872.2 1279.6C871.25 1284.2 869.85 1288.7 868.35 1293.2C864.45 1299.45 860.75 1305.8 857.4 1312.4C854.7 1317.8 852.3 1323.35 850.2 1329C849.167 1331.9 848.233 1334.83 847.4 1337.8C846.6 1340.75 845.75 1343.7 845.5 1346.75C845.45 1347.5 846.5 1347.45 846.7 1346.85C847.65 1344.25 848.25 1341.5 849.05 1338.85C849.85 1336.2 850.75 1333.6 851.7 1331C853.2 1327 854.85 1323.05 856.7 1319.2C859.65 1314.95 862.9 1310.85 866.45 1307.15C870.75 1302.65 875.5 1298.7 880.55 1295.15C890.8 1287.9 902.1 1282.5 913.15 1276.6C919.25 1273.3 924.85 1269.25 927.65 1262.7C927.85 1262.2 927.25 1261.95 927 1262.35C923.45 1267.35 917.75 1270.7 912.5 1273.65C907.05 1276.65 901.4 1279.3 896 1282.4C885.2 1288.5 874.7 1295.45 866.05 1304.45C864.617 1305.95 863.25 1307.5 861.95 1309.1C866 1301.8 870.5 1294.8 875.2 1287.95C879 1282.4 882.9 1276.95 886.85 1271.5C888.9 1269.5 891.05 1267.65 893.4 1266C897.05 1263.4 900.95 1261.3 904.9 1259.25C912.75 1255.2 920.85 1251.5 927.55 1245.65C931.2 1242.45 933.95 1238.65 935.35 1234C935.5 1233.6 934.9 1233.4 934.7 1233.75Z" fill="#EAEAEA"/>
<path d="M933.9 1215.5C929.55 1219 925.75 1223 921.75 1226.9C917.75 1230.85 913.6 1234.7 909.95 1239C909.75 1239.15 910 1239.45 910.2 1239.3C915.05 1236.35 919.3 1232.6 923.4 1228.7C927.5 1224.8 931.4 1220.8 934.5 1216.05C934.7 1215.7 934.2 1215.2 933.9 1215.5Z" fill="#EAEAEA"/>
<path d="M910.55 1218.15C908.65 1221.9 907.65 1225.9 907 1230C906.9 1230.75 908 1231.3 908.35 1230.5C909.9 1226.55 911.05 1222.55 911.25 1218.3C911.3 1217.95 910.75 1217.85 910.55 1218.15Z" fill="#EAEAEA"/>
<path d="M790.1 1219.45C786.5 1212.55 781.25 1206.4 775.7 1201C771.35 1196.7 764.2 1189.7 757.7 1194.25C757.45 1194.4 757.7 1194.75 757.9 1194.6C764.75 1190.4 771.95 1198.3 776.3 1202.75C781.35 1207.95 785.6 1213.75 789.85 1219.6C790 1219.8 790.2 1219.65 790.1 1219.45Z" fill="#EF8181"/>
<path d="M853.3 1213.2C848.75 1212.8 844.15 1212.85 839.55 1212.8C835.45 1212.8 831.35 1212.7 827.3 1212.85C820.75 1213.1 813.7 1214.15 809.15 1219.35C808.95 1219.55 809.25 1219.85 809.45 1219.65C814.4 1214.7 821.75 1213.9 828.35 1213.8C836.65 1213.65 845.05 1214.25 853.3 1213.6C853.6 1213.6 853.55 1213.2 853.3 1213.2Z" fill="#EF8181"/>
<path d="M834.15 1185.55C826.55 1189.05 820.4 1195.75 816.3 1202.85C816.15 1203.1 816.5 1203.3 816.65 1203.05C818.85 1199.5 821.45 1196.3 824.45 1193.4C827.45 1190.5 830.8 1188.15 834.25 1185.8C834.4 1185.75 834.3 1185.5 834.15 1185.55Z" fill="#EF8181"/>
<path d="M836.7 1191C831.05 1194.65 826.15 1199.8 821.7 1204.85C821.6 1204.95 821.8 1205.15 821.95 1205.05C824.35 1202.65 826.817 1200.3 829.35 1198C831.85 1195.75 834.45 1193.6 836.9 1191.2C837 1191.1 836.85 1190.9 836.7 1191Z" fill="#EF8181"/>
<path d="M793.35 1205.75C792.8 1204.6 791.3 1203.8 790.35 1203C785.9 1199.15 782.1 1194.2 779.55 1188.9C779.5 1188.75 779.25 1188.9 779.3 1189C780.8 1192.5 782.55 1195.75 784.95 1198.75C786.083 1200.12 787.3 1201.43 788.6 1202.7C789.3 1203.37 790.033 1204.03 790.8 1204.7C791.15 1205 791.6 1205.25 791.95 1205.6C792.283 1205.87 792.483 1206.23 792.55 1206.7C792.383 1206.7 792.283 1206.65 792.25 1206.55C792.5 1206.45 792.45 1206.15 792.2 1206.15C791.15 1206.25 792.1 1207.8 792.95 1207.5C793.65 1207.25 793.65 1206.3 793.35 1205.75Z" fill="white"/>
<path d="M800.1 1181.5C800.25 1180.3 800.55 1179.15 800.55 1177.9C800.55 1177.75 800.3 1177.7 800.2 1177.85C798.85 1180 798.75 1183.1 798.75 1185.55C798.7 1188.3 799.15 1191.05 800 1193.7C800.1 1194.05 800.65 1193.85 800.55 1193.5C800 1190.85 799.75 1188.2 799.75 1185.5C799.8 1184.2 799.9 1182.85 800.1 1181.5Z" fill="#EF8181"/>
<path d="M807.3 1183.3C806.3 1184.9 805.65 1186.6 805.3 1188.5C804.95 1190.4 805.1 1192.2 805.3 1194.1C805.3 1194.3 805.55 1194.3 805.55 1194.1C805.5 1190.55 806.55 1186.75 807.65 1183.4C807.7 1183.2 807.4 1183.1 807.3 1183.3Z" fill="white"/>
<path d="M955.05 1349.7C954.25 1350.4 953.9 1351.35 953.45 1352.25C953.017 1353.25 952.633 1354.27 952.3 1355.3C951.6 1357.4 951.1 1359.5 951 1361.7C951 1361.95 951.3 1361.95 951.35 1361.75C951.85 1359.7 952.35 1357.65 953.05 1355.7C953.417 1354.6 953.833 1353.53 954.3 1352.5C954.7 1351.65 955.25 1350.85 955.4 1349.9C955.4 1349.7 955.2 1349.6 955.05 1349.7Z" fill="white"/>
<path d="M980.3 1347.85C979.55 1347.1 978.6 1346.5 977.55 1346.2C976.4 1345.85 975.5 1346.1 974.4 1346.45C974.3 1346.5 974.35 1346.65 974.45 1346.65C976.25 1346.2 978.35 1347.25 979.5 1348.5C980.75 1349.85 981.4 1351.7 981.1 1353.5C981.1 1353.75 981.4 1353.9 981.5 1353.65C982.55 1351.65 981.85 1349.4 980.3 1347.85Z" fill="#EF8181"/>
<path d="M973.05 1377.3C971.4 1373.85 969.3 1370.65 968.05 1366.95C966.75 1363.3 965.95 1359.5 965.7 1355.65C965.7 1355.55 965.55 1355.55 965.55 1355.65C965.55 1359.65 966.1 1363.6 967.3 1367.4C968.5 1371 970.05 1374.9 972.75 1377.6C972.95 1377.8 973.15 1377.5 973.05 1377.3Z" fill="#EF8181"/>
<path d="M973.25 1369.2C972.55 1367.3 971.65 1365.65 970.5 1364C970.35 1363.75 970.05 1364 970.15 1364.2C971 1365.9 971.7 1367.75 972.25 1369.55C972.75 1371.25 973 1373.1 973.7 1374.7C973.8 1374.85 974.05 1374.9 974.1 1374.7C974.4 1372.85 973.85 1370.95 973.25 1369.2Z" fill="#EF8181"/>
<path d="M979.9 1317.4C979.7 1317.3 979.45 1317.3 979.3 1317.4C977 1318.9 974.95 1320.8 973.25 1322.9C972.4 1323.9 971.65 1324.95 971 1326.1C970.45 1327.15 969.7 1328.35 969.6 1329.55C969.6 1329.7 969.85 1329.8 970 1329.65C970.8 1328.8 971.3 1327.55 971.95 1326.6C972.65 1325.5 973.45 1324.4 974.3 1323.4C975.1 1322.43 975.983 1321.53 976.95 1320.7C977.417 1320.27 977.917 1319.85 978.45 1319.45C978.75 1319.25 979.05 1319 979.35 1318.85C979.383 1318.82 979.417 1318.78 979.45 1318.75C979.45 1318.82 979.433 1318.88 979.4 1318.95C979.2 1319.05 979.25 1319.35 979.5 1319.35C980.6 1319.45 980.75 1317.85 979.9 1317.4Z" fill="#EF8181"/>
<path d="M959.25 1293.9C959.3 1293.75 959.05 1293.65 959 1293.8C955.15 1301.9 954.85 1311.75 957.1 1320.35C957.15 1320.45 957.35 1320.4 957.3 1320.25C956.5 1315.9 956.25 1311.4 956.6 1306.95C956.9 1302.5 958 1298.2 959.25 1293.9Z" fill="white"/>
<path d="M969.2 1285.85C965.8 1291.35 964.1 1298 963 1304.3C962.5 1307.4 962.1 1310.6 962.05 1313.8C962.05 1315.6 961.7 1318.8 964 1319.45C964.15 1319.5 964.25 1319.25 964.1 1319.2C962.75 1318.65 962.95 1316.75 963 1315.55C963.1 1314.12 963.217 1312.68 963.35 1311.25C963.65 1308.35 964.1 1305.45 964.7 1302.6C965.9 1296.9 967.95 1291.55 969.6 1286.05C969.7 1285.75 969.35 1285.65 969.2 1285.85Z" fill="#EF8181"/>
<path d="M972 1304.2C971.15 1306.7 970.8 1309.35 970.35 1311.9C970.3 1312.25 970.8 1312.35 970.85 1312.05C971.5 1309.45 972.15 1306.85 972.35 1304.25C972.35 1304.05 972.1 1304.05 972 1304.2Z" fill="#EF8181"/>
<path d="M382.449 509.159L376.642 544H357.193L367.375 482.909H385.869L384.04 494.125H384.716C386.625 490.386 389.396 487.456 393.028 485.335C396.661 483.188 400.744 482.114 405.278 482.114C409.547 482.114 413.114 483.068 415.977 484.977C418.841 486.886 420.869 489.564 422.062 493.011C423.256 496.432 423.455 500.449 422.659 505.062L416.136 544H396.688L402.534 508.881C403.117 505.513 402.706 502.875 401.301 500.966C399.922 499.03 397.669 498.062 394.54 498.062C392.498 498.062 390.629 498.513 388.932 499.415C387.261 500.29 385.856 501.549 384.716 503.193C383.602 504.837 382.847 506.826 382.449 509.159ZM456.536 545.153C450.092 545.153 444.776 543.828 440.587 541.176C436.424 538.525 433.494 534.826 431.797 530.08C430.1 525.333 429.768 519.818 430.803 513.534C431.837 507.277 433.971 501.788 437.206 497.068C440.441 492.348 444.577 488.676 449.615 486.051C454.653 483.426 460.367 482.114 466.757 482.114C473.174 482.114 478.464 483.439 482.626 486.091C486.816 488.742 489.759 492.441 491.456 497.188C493.179 501.934 493.524 507.462 492.49 513.773C491.456 520.03 489.308 525.519 486.047 530.239C482.786 534.932 478.649 538.591 473.638 541.216C468.626 543.841 462.926 545.153 456.536 545.153ZM458.723 530.477C461.109 530.477 463.244 529.761 465.126 528.33C467.036 526.898 468.64 524.896 469.939 522.324C471.238 519.752 472.166 516.769 472.723 513.375C473.28 510.034 473.333 507.104 472.882 504.585C472.458 502.04 471.556 500.064 470.178 498.659C468.799 497.227 466.929 496.511 464.57 496.511C462.183 496.511 460.036 497.241 458.126 498.699C456.217 500.131 454.613 502.133 453.314 504.705C452.041 507.25 451.126 510.233 450.57 513.653C450.013 516.994 449.946 519.924 450.371 522.443C450.795 524.962 451.71 526.938 453.115 528.369C454.52 529.775 456.39 530.477 458.723 530.477ZM542.067 482.909L539.641 497.227H501.101L503.527 482.909H542.067ZM513.987 468.273H533.436L524.05 524.79C523.864 525.983 523.891 526.951 524.129 527.693C524.394 528.409 524.872 528.926 525.561 529.244C526.277 529.536 527.152 529.682 528.186 529.682C528.902 529.682 529.697 529.602 530.572 529.443C531.447 529.284 532.11 529.165 532.561 529.085L533.197 543.125C532.163 543.417 530.771 543.748 529.021 544.119C527.298 544.517 525.283 544.769 522.976 544.875C518.309 545.061 514.451 544.517 511.402 543.244C508.379 541.945 506.245 539.93 504.999 537.199C503.779 534.468 503.54 531.047 504.283 526.938L513.987 468.273ZM610.854 482.909L608.428 497.227H569.132L571.558 482.909H610.854ZM569.49 544L580.229 479.807C580.998 475.087 582.522 471.176 584.803 468.074C587.083 464.945 589.933 462.612 593.354 461.074C596.774 459.509 600.539 458.727 604.649 458.727C607.38 458.727 609.912 458.939 612.246 459.364C614.579 459.761 616.276 460.119 617.337 460.438L611.967 474.676C611.251 474.437 610.403 474.239 609.422 474.08C608.467 473.92 607.526 473.841 606.598 473.841C604.344 473.841 602.714 474.345 601.706 475.352C600.698 476.36 600.036 477.739 599.717 479.489L588.939 544H569.49ZM636.567 545.153C630.124 545.153 624.807 543.828 620.618 541.176C616.455 538.525 613.525 534.826 611.828 530.08C610.131 525.333 609.8 519.818 610.834 513.534C611.868 507.277 614.002 501.788 617.237 497.068C620.472 492.348 624.608 488.676 629.646 486.051C634.684 483.426 640.398 482.114 646.788 482.114C653.205 482.114 658.495 483.439 662.658 486.091C666.847 488.742 669.79 492.441 671.487 497.188C673.211 501.934 673.555 507.462 672.521 513.773C671.487 520.03 669.339 525.519 666.078 530.239C662.817 534.932 658.68 538.591 653.669 541.216C648.658 543.841 642.957 545.153 636.567 545.153ZM638.754 530.477C641.141 530.477 643.275 529.761 645.158 528.33C647.067 526.898 648.671 524.896 649.97 522.324C651.269 519.752 652.197 516.769 652.754 513.375C653.311 510.034 653.364 507.104 652.913 504.585C652.489 502.04 651.588 500.064 650.209 498.659C648.83 497.227 646.961 496.511 644.601 496.511C642.214 496.511 640.067 497.241 638.158 498.699C636.249 500.131 634.644 502.133 633.345 504.705C632.072 507.25 631.158 510.233 630.601 513.653C630.044 516.994 629.978 519.924 630.402 522.443C630.826 524.962 631.741 526.938 633.146 528.369C634.552 529.775 636.421 530.477 638.754 530.477ZM721.223 517.631L727.03 482.909H746.439L736.257 544H717.723L719.592 532.625H718.956C717.073 536.364 714.303 539.333 710.643 541.534C706.984 543.708 702.861 544.795 698.274 544.795C694.111 544.795 690.611 543.841 687.774 541.932C684.937 540.023 682.922 537.358 681.729 533.938C680.562 530.491 680.35 526.46 681.092 521.847L687.615 482.909H707.064L701.217 518.028C700.714 521.343 701.151 523.955 702.53 525.864C703.935 527.773 706.136 528.727 709.132 528.727C711.068 528.727 712.884 528.303 714.581 527.455C716.278 526.58 717.71 525.32 718.876 523.676C720.07 522.006 720.852 519.991 721.223 517.631ZM774.011 509.159L768.205 544H748.756L758.938 482.909H777.432L775.602 494.125H776.278C778.188 490.386 780.958 487.456 784.591 485.335C788.223 483.188 792.307 482.114 796.841 482.114C801.11 482.114 804.676 483.068 807.54 484.977C810.403 486.886 812.432 489.564 813.625 493.011C814.818 496.432 815.017 500.449 814.222 505.062L807.699 544H788.25L794.097 508.881C794.68 505.513 794.269 502.875 792.864 500.966C791.485 499.03 789.231 498.062 786.102 498.062C784.061 498.062 782.191 498.513 780.494 499.415C778.824 500.29 777.419 501.549 776.278 503.193C775.165 504.837 774.409 506.826 774.011 509.159ZM841.854 544.875C837.346 544.875 833.435 543.708 830.121 541.375C826.806 539.042 824.433 535.542 823.001 530.875C821.596 526.208 821.464 520.415 822.604 513.494C823.797 506.309 825.918 500.396 828.967 495.756C832.017 491.116 835.57 487.682 839.626 485.455C843.71 483.227 847.873 482.114 852.115 482.114C855.323 482.114 857.975 482.67 860.07 483.784C862.191 484.871 863.848 486.277 865.041 488C866.234 489.723 867.056 491.513 867.507 493.369H867.945L873.075 462.545H892.524L879.001 544H859.751L861.382 534.097H860.786C859.645 535.979 858.187 537.742 856.411 539.386C854.634 541.03 852.526 542.356 850.087 543.364C847.674 544.371 844.929 544.875 841.854 544.875ZM851.041 529.722C853.401 529.722 855.536 529.059 857.445 527.733C859.354 526.381 860.958 524.485 862.257 522.045C863.583 519.606 864.511 516.742 865.041 513.455C865.598 510.114 865.625 507.237 865.121 504.824C864.617 502.411 863.623 500.555 862.138 499.256C860.679 497.956 858.757 497.307 856.371 497.307C853.984 497.307 851.85 497.97 849.967 499.295C848.085 500.621 846.52 502.491 845.274 504.903C844.028 507.316 843.126 510.167 842.57 513.455C842.039 516.742 841.986 519.606 842.411 522.045C842.861 524.485 843.803 526.381 845.234 527.733C846.693 529.059 848.628 529.722 851.041 529.722Z" fill="white"/>
</svg>
